# xmcd CD database file
#
# Track frame offsets:
#	150
#	14743
#	24450
#	43923
#	69400
#	80895
#	85015
#	94695
#	114050
#	140158
#	156508
#	161968
#	192333
#	207613
#	233110
#	247325
#
# Disc length: 3771 seconds
#
# Revision: 5
# Processed by: cddbd v1.5PL3 Copyright (c) Steve Scherf et al.
# Submitted via: CDex 1.50Beta5
#
DISCID=eb0eb910
DTITLE=劇団四季 - オペラ座の怪人 10周年記念キャスト盤 Disc1
DYEAR=1900
DGENRE=Soundtrack
TTITLE0=プロローグ
TTITLE1=オーヴァチュア
TTITLE2=ハンニバル
TTITLE3=スィンク・オブ・ミー
TTITLE4=エンジェル・オブ・ミュージック
TTITLE5=リトル・ロッテ
TTITLE6=ザ・ミラー(エンジェル・オブ・ミュージック)
TTITLE7=オペラ座の怪人
TTITLE8=ザ・ミュージック・オブ・ザ・ナイト
TTITLE9=怪人の隠れ家
TTITLE10=舞台裏
TTITLE11=支配人のオフィス
TTITLE12=プリマ・ドンナ
TTITLE13=イル・ムート
TTITLE14=オペラ座の屋上
TTITLE15=オール・アイ・アスク・オブ・ユー
EXTD=
EXTT0=
EXTT1=
EXTT2=
EXTT3=
EXTT4=
EXTT5=
EXTT6=
EXTT7=
EXTT8=
EXTT9=
EXTT10=
EXTT11=
EXTT12=
EXTT13=
EXTT14=
EXTT15=
PLAYORDER=
